<svg role="img" viewBox="0 0 24 24" xmlns="http://www.w3.org/2000/svg"><title>CodeChef</title><path fill="#5B4638" d="M11.007 0c-.787.031-1.515.37-2.222.685a12.27 12.27 0 01-1.864.703c-.635.176-1.3.354-1.814.788-.222.18-.356.439-.529.662-.309.486-.448 1.067-.457 1.638.036.61.216 1.2.376 1.786.368 1.263.629 2.554.886 3.84a43.85 43.85 0 01.334 2.581c-.027.09-.107.104-.178.129a8.75 8.75 0 00-1.767.781c-.643.387-1.187.906-1.688 1.456-.54.563-1.063 1.142-1.528 1.77-.51.673-.963 1.39-1.327 2.148-.317.665-.62 1.345-.79 2.07a5.33 5.33 0 00-.197 1.86c.089.602.34 1.167.568 1.728a9.72 9.72 0 002.4 3.125c.757.666 1.625 1.197 2.546 1.617a12.26 12.26 0 003.27.987c.471.073.95.089 1.425.121.283-.008.566-.021.85-.033a12.4 12.4 0 004.106-1.003c.889-.37 1.73-.85 2.49-1.437a10.7 10.7 0 002.303-2.4c.322-.472.61-.963.871-1.47.168-.354.327-.717.431-1.099.1-.377.166-.768.158-1.158a4.16 4.16 0 00-.295-1.377 6.15 6.15 0 00-.786-1.448c-.503-.666-1.067-1.283-1.634-1.889-.524-.553-1.13-1.02-1.745-1.471-.272-.195-.556-.376-.852-.533a5.71 5.71 0 00-.76-.378c.043-.74.115-1.477.198-2.212.151-1.236.406-2.456.584-3.688.13-.69.208-1.39.23-2.091a4.98 4.98 0 00-.256-1.787c-.217-.546-.477-1.087-.887-1.517-.437-.464-.957-.84-1.527-1.107a5.6 5.6 0 00-1.893-.545c-.279-.038-.56-.039-.835-.055zm-.093 1.008c.475.047.95.128 1.395.32.479.196.933.467 1.305.82.355.355.642.78.863 1.233.139.321.24.658.312.999-.104.038-.203.09-.31.12-.256.074-.526.09-.79.1a7.95 7.95 0 01-.936-.035 11.35 11.35 0 01-.729-.085c-.57-.109-1.133-.28-1.65-.538a3.33 3.33 0 01-.396-.237c-.087-.065-.093-.07-.012-.131.423-.296.911-.506 1.416-.634.226-.058.455-.1.686-.127.183-.015.368-.034.555-.013.065.013.045.068.045.11.003.135-.095.26-.163.365a.705.705 0 01-.286.233c-.072.037-.145.072-.214.116-.04.035-.11.087-.065.14.058.055.136.057.208.049a.73.73 0 00.324-.12c.137-.097.256-.222.343-.368.144-.254.192-.556.175-.848-.009-.187-.092-.375-.214-.52a.76.76 0 00-.513-.252c-.378-.044-.76.028-1.122.126-.6.168-1.174.432-1.678.79-.082.067-.093.096-.038.174a2.5 2.5 0 00.228.271c.28.276.614.49.957.671.598.304 1.243.481 1.889.615.293.055.59.097.887.128.37.035.741.042 1.114.012.296-.033.59-.079.874-.168.14-.041.282-.097.41-.175.054.264.06.537.043.805-.04.442-.12.88-.195 1.316-.31 1.627-.618 3.255-.88 4.89a24.55 24.55 0 00-.271 2.404c-.038.572-.02 1.148.097 1.713.09.4.238.79.448 1.142.07.125.16.24.252.348.191.206.44.359.695.467.26.116.54.198.827.243.286.05.576.058.862.09.147-.003.295-.003.442-.027a3.81 3.81 0 00.903-.243.935.935 0 01-.022.117c-.207.687-.58 1.31-.998 1.879-.54.72-1.192 1.353-1.903 1.905a11.66 11.66 0 01-2.337 1.457c-1.168.54-2.42.91-3.7 1.066-.434.05-.87.071-1.305.05-.472-.015-.944-.09-1.404-.202a10.09 10.09 0 01-2.702-1.004 9.13 9.13 0 01-2.119-1.612 8.66 8.66 0 01-1.544-2.169c-.284-.575-.501-1.181-.606-1.81a4.21 4.21 0 01.003-1.44c.084-.357.204-.705.344-1.043.402-.967.947-1.866 1.572-2.693.338-.447.711-.87 1.098-1.277a8.43 8.43 0 011.575-1.29c.369-.231.766-.41 1.16-.592.11-.047.215-.108.334-.137.112.342.254.671.425.985.405.723.959 1.37 1.626 1.862.516.392 1.098.702 1.704.943.362.138.735.245 1.11.338.188.033.378.08.567.085.074-.001.14-.054.14-.13-.044-.22-.152-.424-.267-.616a6.76 6.76 0 00-.62-.86 7.05 7.05 0 00-1.23-1.216c-.406-.32-.84-.606-1.28-.877-.256-.153-.526-.292-.76-.48a2.04 2.04 0 01-.367-.393c-.087-.115-.17-.243-.197-.388-.019-.092.009-.147.098-.178.24-.083.493-.086.742-.067.382.03.755.12 1.123.228.727.224 1.414.556 2.06.951a9.82 9.82 0 011.672 1.29c.477.458.914.962 1.263 1.524.32.527.587 1.099.706 1.713a3.62 3.62 0 01-.03 1.417c-.14.553-.372 1.086-.683 1.566a7.6 7.6 0 01-1.17 1.387c-.483.458-1.026.85-1.6 1.183-.582.335-1.193.621-1.826.845-.474.163-.96.29-1.451.387-.37.066-.743.117-1.119.128a7.48 7.48 0 01-1.254-.082c-.51-.078-1.013-.211-1.494-.404-.424-.176-.832-.394-1.2-.668-.347-.266-.656-.578-.913-.932-.255-.361-.463-.755-.618-1.168a4.93 4.93 0 01-.278-1.47c-.021-.473.027-.949.098-1.415.102-.648.26-1.288.437-1.918.206-.715.454-1.417.707-2.116.337-.936.697-1.862 1.056-2.79.191-.493.386-.984.586-1.473.142-.352.287-.703.427-1.055l.072-.187.015.005c.168.063.343.106.518.137.27.054.546.075.822.067a3.37 3.37 0 001.148-.263 3.08 3.08 0 00.814-.512c.222-.189.416-.411.57-.659.177-.283.317-.59.422-.91.058-.187.103-.377.147-.566.05-.21.082-.426.083-.643a3.34 3.34 0 00-.209-1.166c-.12-.29-.3-.555-.503-.794a3.28 3.28 0 00-.63-.545c-.238-.165-.498-.3-.764-.417a5.96 5.96 0 00-.84-.295c-.29-.082-.583-.151-.88-.2a7.33 7.33 0 00-.863-.099c-.286-.015-.573-.022-.856.01a2.8 2.8 0 00-.59.12 1.3 1.3 0 00-.284.131 1.01 1.01 0 00-.313.34.99.99 0 00-.116.463c-.004.317.09.631.225.908.177.37.435.698.732.978.367.355.796.64 1.253.868.363.182.742.33 1.133.441.276.078.558.131.84.178l.049.007-.04.1c-.2.502-.4 1.002-.596 1.506-.331.855-.647 1.715-.95 2.58-.236.672-.458 1.35-.644 2.039-.154.57-.29 1.148-.362 1.735a6.16 6.16 0 00-.055.824c.002.248.03.498.091.74.089.355.243.697.466.99.209.275.474.504.77.681.26.157.543.277.836.367a5.9 5.9 0 001.53.244c.265.013.53.007.795-.014.37-.036.738-.109 1.09-.235.272-.097.537-.227.764-.408.12-.095.23-.202.323-.323.133-.175.225-.38.276-.594.054-.226.067-.46.046-.69a3.65 3.65 0 00-.223-.896c-.112-.292-.262-.567-.432-.828a6.65 6.65 0 00-.593-.756 7.55 7.55 0 00-1.25-1.122 9.25 9.25 0 00-1.493-.937 10.1 10.1 0 00-1.583-.67c-.527-.168-1.066-.294-1.614-.362-.193-.024-.388-.037-.584-.043a3.19 3.19 0 00-.597.039c-.128.022-.249.068-.356.138-.06.045-.095.12-.1.192-.01.118.02.233.062.343.099.257.243.493.416.705.199.247.426.47.667.674.366.309.767.577 1.184.815.283.161.575.307.87.443.128.058.26.11.385.176.107.057.215.116.307.2.023.035-.002.074-.034.093-.15.087-.327.11-.497.11a2.98 2.98 0 01-.527-.056 5.52 5.52 0 01-1.26-.388 6.41 6.41 0 01-1.54-.949 5.47 5.47 0 01-1.015-1.138c-.23-.335-.408-.7-.52-1.088-.05-.168-.088-.34-.098-.515-.013-.218.01-.44.077-.648.082-.249.223-.472.39-.672.157-.187.34-.351.54-.493.317-.224.669-.397 1.033-.536.363-.137.738-.243 1.118-.317.356-.07.717-.116 1.08-.134.306-.016.614.002.916.054.256.044.508.116.744.225.185.088.362.198.504.346.108.112.186.252.234.404.05.155.064.322.041.483-.02.128-.068.253-.126.37a1.82 1.82 0 01-.223.355 2.22 2.22 0 01-.347.35c-.244.196-.522.347-.811.461-.253.1-.518.168-.788.203a2.51 2.51 0 01-.667.004c-.094-.015-.186-.04-.276-.073a.87.87 0 01-.252-.142.56.56 0 01-.146-.196c-.044-.104-.042-.227.008-.328.057-.12.15-.22.25-.305.124-.103.265-.182.408-.254.093-.046.191-.08.29-.113.047-.017.098-.025.136-.059a.08.08 0 00.003-.11c-.036-.044-.092-.063-.145-.073-.127-.02-.256-.014-.383.002a2.21 2.21 0 00-.555.128 1.6 1.6 0 00-.522.306 1.09 1.09 0 00-.302.465c-.05.16-.07.328-.054.494a1 1 0 00.134.41c.087.137.201.257.33.358.26.203.572.335.895.408.312.07.634.084.953.068a3.88 3.88 0 001.004-.182c.338-.107.661-.26.958-.453.267-.175.51-.389.708-.64.164-.206.29-.443.361-.7.063-.222.084-.456.06-.686a1.96 1.96 0 00-.24-.718 2.06 2.06 0 00-.47-.545 3.06 3.06 0 00-.613-.402 4.45 4.45 0 00-.674-.289 6.1 6.1 0 00-.713-.194 6.49 6.49 0 00-.74-.108 7.01 7.01 0 00-.746-.035c-.397.002-.796.034-1.188.108a6.09 6.09 0 00-1.131.323 4.46 4.46 0 00-.987.54c-.257.19-.488.413-.672.673a2.22 2.22 0 00-.361.814c-.056.238-.07.485-.048.728.025.28.098.556.21.814.125.292.299.562.503.806.406.485.914.88 1.47 1.186.508.28 1.054.487 1.617.626a8.44 8.44 0 001.59.24c.212.015.425.015.637.004a4.23 4.23 0 001.246-.21c.286-.096.556-.235.787-.423a1.68 1.68 0 00.46-.58 1.55 1.55 0 00.144-.69c.002-.19-.033-.378-.09-.558a3.02 3.02 0 00-.257-.553 4.82 4.82 0 00-.393-.568 6.53 6.53 0 00-.47-.53 7.73 7.73 0 00-1.024-.886 9.68 9.68 0 00-1.143-.74 10.9 10.9 0 00-1.247-.592c-.43-.17-.871-.31-1.322-.41a9.3 9.3 0 00-.695-.124c-.054-.005-.107-.016-.16-.019.03-.07.061-.138.09-.208.347-.84.727-1.667 1.08-2.504.21-.495.415-.992.621-1.488.046-.11.095-.22.13-.334a2.95 2.95 0 00-.122-.054c-.244-.093-.5-.15-.754-.209-.295-.066-.593-.12-.893-.161z"/></svg>
