<svg role="img" viewBox="0 0 24 24" xmlns="http://www.w3.org/2000/svg"><title>Flask</title><path fill="#000000" d="M7.172 20.36c-.914-.72-1.89-1.41-2.556-2.38-1.402-1.712-2.482-3.694-3.22-5.777-.446-1.355-.6-2.808-.38-4.214.088-.464.105-.946.333-1.368.197-.156.476-.156.7-.227.51-.12 1.03-.088 1.552-.064.627.055 1.257-.027 1.876.083.067-.637.152-1.312-.052-1.932-.124-.38.087-.652.347-.88.458.018.917.006 1.366.12.47.073.947.037 1.417.085.41.028.754-.26 1.163-.238.68-.029 1.357.09 2.035.072.54.023 1.087-.036 1.612.112.2.03.417.01.598.12-.093.457-.082.932-.005 1.39.067.39.206.872-.1 1.19-.595-.053-1.196-.063-1.783.04-.568.07-1.14.064-1.7.186l.056.227c.73.173 1.48.213 2.208.403.893.205 1.76.515 2.587.906.666.31 1.226.798 1.86 1.16.553.392.994.93 1.556 1.31.484.327.843.805 1.222 1.244.587.705 1.25 1.36 1.682 2.175.46.764.84 1.59 1.058 2.46.204.9.187 1.838-.043 2.73-.037.167-.048.403-.255.445-.464-.094-.87-.384-1.27-.62-.848-.456-1.667-.988-2.374-1.62-.487-.43-.886-.962-1.42-1.34-.17-.125-.378-.283-.596-.22-.022.344.2.636.342.936.39.706.815 1.4 1.158 2.13.344.626.616 1.34.634 2.065.04.35-.233.606-.416.874-.47.005-.958.094-1.4-.078-.563-.213-1.108-.49-1.555-.88-.61-.558-1.157-1.172-1.774-1.72-.317-.286-.67-.54-.957-.86-.155-.238-.427-.48-.28-.79.346-.086.706-.04 1.055-.072.22-.058.524-.056.622-.297.09-.315-.12-.603-.214-.89-.37-.704-.61-1.477-1.062-2.137-.32-.528-.685-1.02-1.043-1.52l-.107.06c-.02.513.003 1.028.075 1.535.14.99.353 1.968.57 2.94.192.688.213 1.412.453 2.087.12.385.28.754.478 1.106.17.312.493.487.717.752.02.2.054.448-.1.604-.397.155-.84.016-1.235-.067-.705-.195-1.34-.576-1.915-.98-.617-.5-1.22-1.03-1.684-1.67-.48-.533-.774-1.208-1.27-1.728-.15-.207-.43-.335-.443-.61l.15-.06c.287.108.52.325.814.42.278.13.577.203.874.267.108-.053.263-.09.282-.227-.16-.303-.462-.495-.72-.71-.717-.54-1.386-1.14-2.008-1.79-.46-.48-.934-.954-1.32-1.496-.154-.248-.455-.37-.548-.666l.082-.107c.35.054.647.263.95.43.607.31 1.148.732 1.754 1.048.32.194.713.278.975.546.094.052.218.122.323.063.092-.182-.038-.388-.132-.548-.27-.55-.673-1.015-1.04-1.5-.57-.675-1.048-1.43-1.743-1.997-.424-.364-.98-.533-1.5-.68-.46-.158-.912-.37-1.4-.41-.35-.002-.7 0-1.045.066-.52.12-1.075.236-1.484.58-.4.37-.706.844-.87 1.365-.204.63-.253 1.304-.18 1.962.08.847.286 1.68.6 2.464.334.888.783 1.73 1.323 2.5.523.768 1.11 1.497 1.788 2.136.348.336.76.598 1.11.93.1.086.188.212.338.218.154-.13.035-.36.015-.526-.2-.767-.33-1.553-.6-2.302-.26-.855-.6-1.684-.89-2.527-.067-.285-.217-.543-.27-.833 0-.108-.012-.263.105-.318.232-.02.33.213.443.36.29.42.558.863.74 1.345.39.883.725 1.792.953 2.73.13.49.2.998.362 1.48.19.49.378 1.004.737 1.396.078.088.173.236.316.195.245-.245.196-.62.173-.934-.035-.46-.138-.91-.222-1.363z"/></svg>
