<svg role="img" viewBox="0 0 24 24" xmlns="http://www.w3.org/2000/svg"><title>GeeksforGeeks</title><path fill="#2F8D46" d="M21.45 14.315c-.143.28-.334.532-.565.745a3.691 3.691 0 0 1-1.104.695 4.51 4.51 0 0 1-3.116-.016 3.79 3.79 0 0 1-2.135-2.078 3.571 3.571 0 0 1-.292-.968c.26-.074.527-.132.786-.162a8.5 8.5 0 0 1 1.38-.012c.132.014.26.04.39.058-.024-.07-.048-.14-.077-.21-.204-.48-.506-.88-.865-1.222a4.085 4.085 0 0 0-.555-.43 6.93 6.93 0 0 0-3.384-1.055 6.06 6.06 0 0 0-2.288.287c-.79.254-1.5.678-2.124 1.213-.61.52-1.076 1.16-1.415 1.879a6.116 6.116 0 0 0-.557 2.262c-.016.335-.016.672.005 1.004.024.378.078.752.175 1.116.2.758.544 1.458 1.034 2.07a4.66 4.66 0 0 0 1.582 1.336c.62.35 1.303.56 2.007.624.74.07 1.487-.016 2.19-.252a5.18 5.18 0 0 0 1.692-.932 5.49 5.49 0 0 0 1.178-1.434c.07-.116.13-.235.19-.353.31.174.605.37.88.588a4.8 4.8 0 0 1 1.435 1.914c.275.638.403 1.33.377 2.022a4.078 4.078 0 0 1-.383 1.587 4.95 4.95 0 0 1-1.046 1.436 6.04 6.04 0 0 1-1.586 1.087 7.12 7.12 0 0 1-1.984.58 8.562 8.562 0 0 1-2.182.077 8.12 8.12 0 0 1-2.122-.468 7.586 7.586 0 0 1-1.93-1.008 7.193 7.193 0 0 1-2.22-2.538 7.465 7.465 0 0 1-.817-2.366 9.213 9.213 0 0 1-.118-2.028 9.413 9.413 0 0 1 .399-2.305 8.637 8.637 0 0 1 1.11-2.393 9.006 9.006 0 0 1 1.758-2.018 9.306 9.306 0 0 1 2.35-1.462 8.854 8.854 0 0 1 2.716-.765 10.282 10.282 0 0 1 2.65-.005 9.26 9.26 0 0 1 2.574.702 8.697 8.697 0 0 1 2.29 1.39 8.98 8.98 0 0 1 1.79 1.926c.22.31.415.636.587.972a.264.264 0 0 1 .005.261zM2.55 14.315a.264.264 0 0 1-.006.261c-.172.336-.367.662-.587.972a8.98 8.98 0 0 1-1.79 1.926 8.697 8.697 0 0 1-2.29 1.39 9.26 9.26 0 0 1-2.574.702c-.88.142-1.774.123-2.65-.005a8.854 8.854 0 0 1-2.716-.765 9.306 9.306 0 0 1-2.35-1.462 9.006 9.006 0 0 1-1.758-2.018 8.637 8.637 0 0 1-1.11-2.393 9.413 9.413 0 0 1-.399-2.305 9.213 9.213 0 0 1 .118-2.028c.135-.82.412-1.614.817-2.366a7.193 7.193 0 0 1 2.22-2.538 7.586 7.586 0 0 1 1.93-1.008 8.12 8.12 0 0 1 2.122-.468 8.562 8.562 0 0 1 2.182.077c.7.084 1.377.267 1.984.58a6.04 6.04 0 0 1 1.586 1.087c.413.4.77.86 1.046 1.436a4.078 4.078 0 0 1 .383 1.587c.026.692-.102 1.384-.377 2.022a4.8 4.8 0 0 1-1.435 1.914c-.275.218-.57.414-.88.588-.06-.118-.12-.237-.19-.353a5.49 5.49 0 0 0-1.178-1.434 5.18 5.18 0 0 0-1.692-.932 4.91 4.91 0 0 0-2.19-.252 5.163 5.163 0 0 0-2.007.624 4.66 4.66 0 0 0-1.582 1.336c-.49.612-.834 1.312-1.034 2.07-.097.364-.151.738-.175 1.116a7.17 7.17 0 0 0-.005 1.004c.032.79.227 1.55.557 2.262.339.72.805 1.36 1.415 1.879a5.507 5.507 0 0 0 2.124 1.213 6.06 6.06 0 0 0 2.288.287 6.93 6.93 0 0 0 3.384-1.055c.204-.127.387-.27.555-.43.36-.342.661-.742.865-1.222.029-.07.053-.14.077-.21-.13.018-.258.044-.39.058a8.5 8.5 0 0 1-1.38-.012c-.259-.03-.526-.088-.786-.162.062.334.158.66.292.968a3.79 3.79 0 0 0 2.135 2.078 4.51 4.51 0 0 0 3.116.016 3.691 3.691 0 0 0 1.104-.695c.231-.213.422-.464.565-.745z"/></svg>
