<svg role="img" viewBox="0 0 24 24" xmlns="http://www.w3.org/2000/svg"><title>HackerRank</title><path fill="#00EA64" d="M0 0v24h24V0zm9.95 8.002h1.805c.061 0 .111.05.111.111v7.767c0 .061-.05.111-.111.111H9.95a.111.111 0 01-.111-.111v-2.87H7.894v2.87a.111.111 0 01-.111.111H5.978a.111.111 0 01-.111-.111V8.113c0-.061.05-.111.111-.111h1.805c.061 0 .111.05.111.111v2.869h1.945V8.113c0-.061.05-.111.111-.111zm2.791 0h5.414c.061 0 .111.05.111.111v1.582a.111.111 0 01-.111.111h-1.804v6.074a.111.111 0 01-.111.111h-1.806a.111.111 0 01-.111-.111V9.806h-1.582a.111.111 0 01-.111-.111V8.113c0-.061.05-.111.111-.111z"/></svg>
