<svg role="img" viewBox="0 0 24 24" xmlns="http://www.w3.org/2000/svg"><title>NumPy</title><path fill="#013243" d="M10.315 4.876L6.098 2.797c-.213-.107-.457-.1-.663.015L1.522 5.206c-.204.116-.327.334-.319.567v8.98c-.008.293.156.568.432.65l3.926 1.552v4.715c-.003.267.15.516.406.633l4.186 1.9c.156.072.329.084.489.042a.736.736 0 0 0 .254-.127l4.063-2.51a.627.627 0 0 0 .307-.541v-4.765l3.898-2.406c.2-.124.318-.34.314-.572V4.853c.006-.23-.109-.45-.31-.577L14.961.12a.633.633 0 0 0-.653.013l-3.994 2.448v2.295zm.063 8.607l-3.636-1.627V7.203l3.636 1.573zm.622-6.392l-3.674-1.598 3.667-2.228 3.703 1.573zM6.42 15.674l3.568 1.413v4.606l-3.568-1.61zm4.183 1.414l3.54-2.187v4.678l-3.54 2.168zm0-3.044V9.35l3.54 1.579v4.687zm4.162 1.893l3.54-2.162V9.2l-3.54 2.246zm4.165-5.262l-3.554 2.18-3.667-1.632 3.58-2.188zM6.098 6.655V11.4L2.464 9.853v-4.72zm11.73 3.048l3.54-2.246v4.64l-3.54 2.162z"/></svg>
