<svg role="img" viewBox="0 0 24 24" xmlns="http://www.w3.org/2000/svg"><title>Power BI</title><path fill="#F2C811" d="M10.286 0c.794 0 1.438.644 1.438 1.44v21.12c0 .795-.644 1.44-1.438 1.44h-3.63c-.794 0-1.439-.645-1.439-1.44V1.44c0-.796.645-1.44 1.44-1.44zm6.912 5.16c.794 0 1.438.644 1.438 1.44v15.96c0 .795-.644 1.44-1.438 1.44h-3.63c-.794 0-1.439-.645-1.439-1.44V6.6c0-.796.645-1.44 1.44-1.44zm-13.82 5.16c.794 0 1.437.644 1.437 1.44v10.8c0 .795-.643 1.44-1.437 1.44h-1.94C.645 24 0 23.356 0 22.56V11.76c0-.796.645-1.44 1.439-1.44zm13.818 0c.794 0 1.438.644 1.438 1.44v10.8c0 .795-.644 1.44-1.438 1.44h-3.63c-.794 0-1.438-.645-1.438-1.44V11.76c0-.796.644-1.44 1.438-1.44z"/></svg>
