<svg role="img" viewBox="0 0 24 24" xmlns="http://www.w3.org/2000/svg"><title>R</title><path fill="#276DC3" d="M12 2.746c-6.627 0-12 3.987-12 8.903 0 3.626 2.909 6.752 7.097 8.035v-.147c0-.958.078-1.586.234-1.88.156-.294.514-.532 1.073-.713a3.62 3.62 0 0 0-.257-1.232c-.173-.4-.532-.75-1.073-1.053-.543-.305-1.26-.54-2.152-.707a20.2 20.2 0 0 1-.847-.163c-.224-.054-.39-.127-.494-.216-.104-.089-.157-.23-.157-.422 0-.235.116-.362.35-.379.231-.018.57.022 1.016.119.45.096.94.256 1.473.48.531.222 1.042.518 1.53.886.487.37.878.83 1.173 1.378.294.549.441 1.19.441 1.923v.137c1.266.21 2.601.323 4.002.323 6.627 0 12-3.99 12-8.909 0-4.915-5.373-8.903-12-8.903zM6.54 14.103c-.27 0-.533-.026-.788-.078-.256-.052-.478-.132-.669-.242a1.293 1.293 0 0 1-.459-.43 1.153 1.153 0 0 1-.17-.637v-2.17c0-.235.055-.445.165-.629.11-.185.26-.34.446-.467.188-.126.406-.222.652-.288.248-.065.511-.098.79-.098.3 0 .577.042.826.127.25.085.465.205.647.36.183.156.324.345.424.57.1.223.15.474.15.75 0 .307-.063.577-.19.808a1.584 1.584 0 0 1-.502.568 2.17 2.17 0 0 1-.706.33 3.015 3.015 0 0 1-.8.107c-.14 0-.281-.01-.418-.033v.308c0 .135.032.237.098.308a.42.42 0 0 0 .233.127.91.91 0 0 0 .276.017 3.8 3.8 0 0 0 .233-.017v.937c-.27.065-.553.098-.85.098zm11.076-1.48c-.244-.245-.503-.467-.777-.668a4.87 4.87 0 0 0-.854-.523c-.296-.15-.594-.274-.896-.37a5.3 5.3 0 0 0-.882-.207c.06-.104.12-.204.18-.3.06-.1.12-.2.18-.303.062-.102.13-.208.203-.32.073-.11.16-.232.262-.365h1.946v-.9h-1.47c.16-.333.286-.634.378-.905.092-.27.17-.536.234-.793h-1.05c-.06.28-.143.558-.247.83-.104.275-.237.564-.4.867h-1.02c.163-.303.296-.592.4-.867.104-.272.187-.55.247-.83h-1.06a5.9 5.9 0 0 1-.232.793c-.092.27-.22.572-.378.905h-.67v.9h.192c-.1.133-.188.255-.26.365a5.97 5.97 0 0 0-.204.32c-.06.103-.12.203-.18.303-.06.096-.12.196-.18.3a5.29 5.29 0 0 0-.882.207c-.3.096-.598.22-.895.37a4.87 4.87 0 0 0-.854.523 5.12 5.12 0 0 0-.777.668c.31-.1.625-.176.947-.23.323-.052.643-.078.96-.078.327 0 .655.03.983.094.328.062.643.16.943.29.3.133.577.298.83.497.253.2.469.436.646.707h2.756a4.126 4.126 0 0 1 .646-.707c.253-.2.53-.364.83-.497.3-.13.615-.228.943-.29.328-.064.656-.094.983-.094.317 0 .637.026.96.078.322.054.638.13.947.23zm-11.253-1.9c.16 0 .303-.03.425-.088a.8.8 0 0 0 .292-.232.985.985 0 0 0 .168-.33 1.3 1.3 0 0 0 .055-.375 1.14 1.14 0 0 0-.063-.376.858.858 0 0 0-.184-.308.88.88 0 0 0-.303-.21 1.062 1.062 0 0 0-.418-.077c-.15 0-.28.027-.395.08-.113.053-.207.124-.28.212a.936.936 0 0 0-.168.305 1.17 1.17 0 0 0-.056.364c0 .136.018.26.055.374.036.115.092.216.166.303.075.088.17.157.284.207.115.05.246.076.395.076z"/></svg>
