<svg role="img" viewBox="0 0 24 24" xmlns="http://www.w3.org/2000/svg"><title>scikit-learn</title><path fill="#F7931E" d="M12.414 0c-.003 0-.006.004-.007.004v.002C10.18.145 8.258 1.2 6.99 2.636l3.976 4.603a4.93 4.93 0 0 1 1.435-.215c.49 0 .965.073 1.414.209l3.97-4.596C16.502 1.184 14.58.135 12.414 0zm6.001 3.405l-3.97 4.596a4.917 4.917 0 0 1 1.465 3.504c0 1.426-.61 2.714-1.583 3.615l3.844 4.45c2.252-1.67 3.717-4.33 3.724-7.337v-.001c-.001-3.398-1.63-6.424-4.149-8.326a4.4 4.4 0 0 1-.662-.5c.44 0 1.33-.001 1.33-.001zm-12.79.062A11.39 11.39 0 0 0 1.15 12.23c0 3.394 1.478 6.442 3.824 8.544l3.97-4.597A4.917 4.917 0 0 1 7.48 12.5c0-1.425.608-2.714 1.58-3.615L5.625 3.467zM12.414 9.54c-.819 0-1.558.33-2.096.862a2.943 2.943 0 0 0-.866 2.098c0 .818.332 1.559.866 2.098a2.95 2.95 0 0 0 2.096.862 2.95 2.95 0 0 0 2.097-.862 2.943 2.943 0 0 0 .865-2.098c0-.819-.33-1.559-.865-2.098a2.95 2.95 0 0 0-2.097-.862zM5.616 21.45c1.863 1.588 4.274 2.549 6.913 2.549 2.62 0 5.014-.95 6.867-2.519l-3.844-4.45a4.932 4.932 0 0 1-3.138 1.127c-1.2 0-2.3-.43-3.157-1.143z"/></svg>
